<svg width="31" height="31" viewBox="0 0 31 31" fill="none" xmlns="http://www.w3.org/2000/svg">
<path d="M30.2821 8.72895L22.2711 0.717897C21.8109 0.261196 21.1899 0.00340347 20.5416 2.18145e-06H2.44737C2.12586 -0.000427363 1.80742 0.0625827 1.51029 0.185422C1.21317 0.308262 0.943206 0.488517 0.715862 0.715862C0.488517 0.943206 0.308262 1.21317 0.185422 1.51029C0.0625827 1.80742 -0.000427363 2.12586 2.18145e-06 2.44737V28.5526C-0.000427363 28.8741 0.0625827 29.1926 0.185422 29.4897C0.308262 29.7868 0.488517 30.0568 0.715862 30.2841C0.943206 30.5115 1.21317 30.6917 1.51029 30.8146C1.80742 30.9374 2.12586 31.0004 2.44737 31H28.5526C28.8741 31.0004 29.1926 30.9374 29.4897 30.8146C29.7868 30.6917 30.0568 30.5115 30.2841 30.2841C30.5115 30.0568 30.6917 29.7868 30.8146 29.4897C30.9374 29.1926 31.0004 28.8741 31 28.5526V10.4584C30.9966 9.81013 30.7388 9.18908 30.2821 8.72895ZM29.3684 28.5526C29.3695 28.6601 29.3492 28.7666 29.3085 28.8661C29.2679 28.9656 29.2079 29.0559 29.1319 29.1319C29.0559 29.2079 28.9656 29.2679 28.8661 29.3085C28.7666 29.3492 28.6601 29.3695 28.5526 29.3684H2.44737C2.33994 29.3695 2.23336 29.3492 2.13389 29.3085C2.03443 29.2679 1.94406 29.2079 1.86809 29.1319C1.79212 29.0559 1.73207 28.9656 1.69146 28.8661C1.65085 28.7666 1.63049 28.6601 1.63158 28.5526V2.44737C1.63049 2.33994 1.65085 2.23336 1.69146 2.13389C1.73207 2.03443 1.79212 1.94406 1.86809 1.86809C1.94406 1.79212 2.03443 1.73207 2.13389 1.69146C2.23336 1.65085 2.33994 1.63049 2.44737 1.63158H20.5416C20.6486 1.63028 20.7547 1.65138 20.853 1.69353C20.9513 1.73568 21.0398 1.79794 21.1126 1.87632L29.1237 9.88737C29.2021 9.96015 29.2645 10.0486 29.3066 10.1469C29.3488 10.2453 29.3698 10.3514 29.3684 10.4584V28.5526ZM26.1053 12.9058V23.6579C26.1057 23.9794 26.0427 24.2978 25.9198 24.595C25.797 24.8921 25.6167 25.1621 25.3894 25.3894C25.1621 25.6167 24.8921 25.797 24.595 25.9198C24.2978 26.0427 23.9794 26.1057 23.6579 26.1053H7.34211C7.02059 26.1057 6.70215 26.0427 6.40503 25.9198C6.10791 25.797 5.83794 25.6167 5.6106 25.3894C5.38325 25.1621 5.203 24.8921 5.08016 24.595C4.95732 24.2978 4.89431 23.9794 4.89474 23.6579V7.34211C4.89431 7.02059 4.95732 6.70215 5.08016 6.40503C5.203 6.10791 5.38325 5.83794 5.6106 5.6106C5.83794 5.38325 6.10791 5.203 6.40503 5.08016C6.70215 4.95732 7.02059 4.89431 7.34211 4.89474H17.9474V6.52632H7.34211C7.23467 6.52523 7.1281 6.54558 7.02863 6.58619C6.92916 6.6268 6.8388 6.68685 6.76283 6.76283C6.68685 6.8388 6.6268 6.92916 6.58619 7.02863C6.54558 7.1281 6.52523 7.23467 6.52632 7.34211V23.6579C6.52523 23.7653 6.54558 23.8719 6.58619 23.9714C6.6268 24.0708 6.68685 24.1612 6.76283 24.2372C6.8388 24.3131 6.92916 24.3732 7.02863 24.4138C7.1281 24.4544 7.23467 24.4748 7.34211 24.4737H23.6579C23.7653 24.4748 23.8719 24.4544 23.9714 24.4138C24.0708 24.3732 24.1612 24.3131 24.2372 24.2372C24.3131 24.1612 24.3732 24.0708 24.4138 23.9714C24.4544 23.8719 24.4748 23.7653 24.4737 23.6579V12.9058C24.4751 12.7988 24.454 12.6927 24.4119 12.5943C24.3697 12.4959 24.3074 12.4075 24.2289 12.3347L21.9284 10.0342C21.8556 9.95583 21.7671 9.89357 21.6688 9.85142C21.5704 9.80927 21.4644 9.78817 21.3574 9.78947H10.6053C10.4978 9.78838 10.3913 9.80874 10.2918 9.84935C10.1923 9.88996 10.102 9.95001 10.026 10.026C9.95001 10.102 9.88996 10.1923 9.84935 10.2918C9.80874 10.3913 9.78838 10.4978 9.78947 10.6053V20.3947C9.78838 20.5022 9.80874 20.6087 9.84935 20.7082C9.88996 20.8077 9.95001 20.898 10.026 20.974C10.102 21.05 10.1923 21.11 10.2918 21.1506C10.3913 21.1913 10.4978 21.2116 10.6053 21.2105H21.2105V16.3158H17.9474V17.9474H13.0526V13.0526H17.9474V14.6842H21.2105C21.6429 14.6855 22.0571 14.8578 22.3628 15.1635C22.6685 15.4692 22.8408 15.8835 22.8421 16.3158V21.2105C22.8408 21.6429 22.6685 22.0571 22.3628 22.3628C22.0571 22.6685 21.6429 22.8408 21.2105 22.8421H10.6053C10.2838 22.8425 9.96531 22.7795 9.66819 22.6567C9.37107 22.5338 9.1011 22.3536 8.87376 22.1262C8.64641 21.8989 8.46616 21.6289 8.34332 21.3318C8.22048 21.0347 8.15747 20.7162 8.1579 20.3947V10.6053C8.15747 10.2838 8.22048 9.96531 8.34332 9.66819C8.46616 9.37107 8.64641 9.1011 8.87376 8.87376C9.1011 8.64641 9.37107 8.46616 9.66819 8.34332C9.96531 8.22048 10.2838 8.15747 10.6053 8.1579H21.3574C22.0057 8.1613 22.6267 8.41909 23.0868 8.87579L25.3874 11.1763C25.8441 11.6365 26.1019 12.2575 26.1053 12.9058Z" fill="black"/>
</svg>
