<svg width="24" height="22" viewBox="0 0 24 22" fill="none" xmlns="http://www.w3.org/2000/svg">
<path d="M3.65224 0H19.4786C20.4473 0 21.3762 0.365977 22.0612 1.01742C22.7461 1.66886 23.1309 2.55241 23.1309 3.47368V18.5263C23.1309 19.4476 22.7461 20.3311 22.0612 20.9826C21.3762 21.634 20.4473 22 19.4786 22H3.65224C2.68361 22 1.75465 21.634 1.06972 20.9826C0.384789 20.3311 0 19.4476 0 18.5263V3.47368C0 2.55241 0.384789 1.66886 1.06972 1.01742C1.75465 0.365977 2.68361 0 3.65224 0ZM3.65224 1.15789C3.00649 1.15789 2.38718 1.40188 1.93056 1.83617C1.47394 2.27047 1.21741 2.8595 1.21741 3.47368V18.5263C1.21741 19.1405 1.47394 19.7295 1.93056 20.1638C2.38718 20.5981 3.00649 20.8421 3.65224 20.8421H19.4786C20.1244 20.8421 20.7437 20.5981 21.2003 20.1638C21.6569 19.7295 21.9135 19.1405 21.9135 18.5263V3.47368C21.9135 2.8595 21.6569 2.27047 21.2003 1.83617C20.7437 1.40188 20.1244 1.15789 19.4786 1.15789H3.65224ZM13.3916 11C13.3914 11.3184 13.2992 11.6306 13.1251 11.9025C12.951 12.1744 12.7016 12.3956 12.4043 12.5418C12.1069 12.6881 11.773 12.7538 11.4391 12.7318C11.1052 12.7097 10.784 12.6008 10.5107 12.417C10.2375 12.2331 10.0226 11.9813 9.88961 11.6891C9.75663 11.3969 9.71064 11.0756 9.75667 10.7602C9.8027 10.4449 9.93899 10.1476 10.1506 9.90097C10.3623 9.6543 10.6411 9.46771 10.9567 9.36158V5.78947C10.9567 5.48238 11.085 5.18787 11.3133 4.97072C11.5416 4.75357 11.8513 4.63158 12.1741 4.63158H17.0438C17.3667 4.63158 17.6763 4.75357 17.9047 4.97072C18.133 5.18787 18.2612 5.48238 18.2612 5.78947V16.2105C18.2612 16.5176 18.133 16.8121 17.9047 17.0293C17.6763 17.2464 17.3667 17.3684 17.0438 17.3684H6.08707C5.7642 17.3684 5.45454 17.2464 5.22623 17.0293C4.99792 16.8121 4.86966 16.5176 4.86966 16.2105V5.78947C4.86966 5.48238 4.99792 5.18787 5.22623 4.97072C5.45454 4.75357 5.7642 4.63158 6.08707 4.63158H8.5219V5.78947H6.08707V16.2105H17.0438V5.78947H12.1741V9.36158C12.5303 9.48135 12.8387 9.70325 13.0567 9.9967C13.2748 10.2901 13.3918 10.6407 13.3916 11ZM11.5654 10.4211C11.404 10.4211 11.2492 10.482 11.135 10.5906C11.0209 10.6992 10.9567 10.8465 10.9567 11C10.9567 11.1535 11.0209 11.3008 11.135 11.4094C11.2492 11.518 11.404 11.5789 11.5654 11.5789C11.7269 11.5789 11.8817 11.518 11.9959 11.4094C12.11 11.3008 12.1741 11.1535 12.1741 11C12.1741 10.8465 12.11 10.6992 11.9959 10.5906C11.8817 10.482 11.7269 10.4211 11.5654 10.4211Z" fill="white"/>
</svg>
