<svg width="32" height="33" viewBox="0 0 32 33" fill="none" xmlns="http://www.w3.org/2000/svg">
<path d="M4.91656 0H26.2216C27.5256 0 28.7761 0.548894 29.6982 1.52593C30.6202 2.50297 31.1382 3.82812 31.1382 5.20986V27.7859C31.1382 29.1676 30.6202 30.4928 29.6982 31.4698C28.7761 32.4469 27.5256 32.9958 26.2216 32.9958H4.91656C3.61261 32.9958 2.36206 32.4469 1.44003 31.4698C0.517993 30.4928 0 29.1676 0 27.7859V5.20986C0 3.82812 0.517993 2.50297 1.44003 1.52593C2.36206 0.548894 3.61261 0 4.91656 0ZM4.91656 1.73662C4.04726 1.73662 3.21356 2.10255 2.59887 2.75391C1.98418 3.40526 1.63885 4.2887 1.63885 5.20986V27.7859C1.63885 28.7071 1.98418 29.5905 2.59887 30.2418C3.21356 30.8932 4.04726 31.2591 4.91656 31.2591H26.2216C27.0909 31.2591 27.9246 30.8932 28.5393 30.2418C29.154 29.5905 29.4993 28.7071 29.4993 27.7859V5.20986C29.4993 4.2887 29.154 3.40526 28.5393 2.75391C27.9246 2.10255 27.0909 1.73662 26.2216 1.73662H4.91656ZM18.0274 16.4979C18.0271 16.9754 17.903 17.4436 17.6687 17.8515C17.4343 18.2593 17.0986 18.591 16.6983 18.8103C16.298 19.0297 15.8486 19.1282 15.399 19.0952C14.9495 19.0622 14.5172 18.8988 14.1493 18.623C13.7814 18.3472 13.4922 17.9696 13.3131 17.5314C13.1341 17.0932 13.0722 16.6113 13.1342 16.1383C13.1961 15.6653 13.3796 15.2195 13.6645 14.8495C13.9494 14.4796 14.3248 14.1997 14.7497 14.0406V8.68309C14.7497 8.22251 14.9223 7.7808 15.2297 7.45512C15.537 7.12944 15.9539 6.94647 16.3885 6.94647H22.9439C23.3786 6.94647 23.7954 7.12944 24.1028 7.45512C24.4101 7.7808 24.5828 8.22251 24.5828 8.68309V24.3127C24.5828 24.7732 24.4101 25.215 24.1028 25.5406C23.7954 25.8663 23.3786 26.0493 22.9439 26.0493H8.19426C7.75961 26.0493 7.34276 25.8663 7.03542 25.5406C6.72808 25.215 6.55541 24.7732 6.55541 24.3127V8.68309C6.55541 8.22251 6.72808 7.7808 7.03542 7.45512C7.34276 7.12944 7.75961 6.94647 8.19426 6.94647H11.472V8.68309H8.19426V24.3127H22.9439V8.68309H16.3885V14.0406C16.868 14.2202 17.2831 14.553 17.5766 14.9931C17.8702 15.4332 18.0276 15.959 18.0274 16.4979ZM15.5691 15.6296C15.3518 15.6296 15.1434 15.721 14.9897 15.8839C14.836 16.0467 14.7497 16.2676 14.7497 16.4979C14.7497 16.7282 14.836 16.949 14.9897 17.1119C15.1434 17.2747 15.3518 17.3662 15.5691 17.3662C15.7864 17.3662 15.9949 17.2747 16.1485 17.1119C16.3022 16.949 16.3885 16.7282 16.3885 16.4979C16.3885 16.2676 16.3022 16.0467 16.1485 15.8839C15.9949 15.721 15.7864 15.6296 15.5691 15.6296Z" fill="white"/>
</svg>
