<svg width="48" height="44" viewBox="0 0 48 44" fill="none" xmlns="http://www.w3.org/2000/svg">
<path d="M26.7256 40.3337H13.8577C13.3327 40.3337 12.8291 40.1405 12.4579 39.7967C12.0866 39.4529 11.8781 38.9866 11.8781 38.5003V27.5003C11.8781 27.0141 12.0866 26.5478 12.4579 26.204C12.8291 25.8601 13.3327 25.667 13.8577 25.667H33.6544C34.1794 25.667 34.683 25.8601 35.0542 26.204C35.4255 26.5478 35.6341 27.0141 35.6341 27.5003V28.417" stroke="black" stroke-width="1.83333" stroke-linecap="round" stroke-linejoin="round"/>
<path d="M31.6747 34.8337L35.634 38.5003L43.5527 31.167" stroke="black" stroke-width="1.83333" stroke-linecap="round" stroke-linejoin="round"/>
<path d="M11.878 33H7.91869C6.86861 33 5.86153 32.6137 5.11901 31.9261C4.37649 31.2384 3.95935 30.3058 3.95935 29.3333V20.1667C3.95935 19.1942 4.37649 18.2616 5.11901 17.5739C5.86153 16.8863 6.86861 16.5 7.91869 16.5H39.5934C40.6435 16.5 41.6505 16.8863 42.3931 17.5739C43.1356 18.2616 43.5527 19.1942 43.5527 20.1667V23.8333" stroke="black" stroke-width="1.83333" stroke-linecap="round" stroke-linejoin="round"/>
<path d="M11.8781 16.5003V5.50033C11.8781 5.0141 12.0866 4.54778 12.4579 4.20396C12.8291 3.86015 13.3327 3.66699 13.8577 3.66699H33.6544C34.1794 3.66699 34.683 3.86015 35.0542 4.20396C35.4255 4.54778 35.6341 5.0141 35.6341 5.50033V16.5003" stroke="black" stroke-width="1.83333" stroke-linecap="round" stroke-linejoin="round"/>
</svg>
