<svg width="229" height="105" viewBox="0 0 229 105" fill="none" xmlns="http://www.w3.org/2000/svg">
<path d="M136.033 15.0601C135.587 16.0227 135.127 16.8597 134.755 17.4875C134.622 17.7108 134.325 17.7805 134.087 17.655C133.939 17.5712 133.85 17.4317 133.85 17.2783L133.656 16.2459L139.894 52.5466L113.133 56.1878L113.519 58.4479L142.79 54.4858L136.033 15.0601Z" fill="#808080"/>
<path d="M64.8366 73.0268C65.8762 71.4643 66.396 69.0926 66.396 65.9397C66.396 62.7867 65.8762 60.4011 64.8366 58.8107C63.7971 57.2482 62.1041 56.4529 59.7874 56.4529C57.4707 56.4529 55.7777 57.2342 54.7382 58.8107C53.6986 60.3732 53.1937 62.7449 53.1937 65.9257C53.1937 69.1066 53.7135 71.4643 54.7382 73.0129C55.7777 74.5754 57.4707 75.3706 59.7874 75.3706C62.119 75.3706 63.7971 74.5893 64.8366 73.0129V73.0268ZM45.2783 79.1932C41.9814 76.0542 40.333 71.6317 40.333 65.9257C40.333 60.2197 41.9814 55.7973 45.2783 52.6722C48.5751 49.5332 53.4165 47.9707 59.7874 47.9707C66.1584 47.9707 70.9997 49.5332 74.2965 52.6722C77.5934 55.8112 79.2418 60.2197 79.2418 65.9257C79.2418 71.6317 77.5934 76.0542 74.2965 79.1932C70.9997 82.3322 66.1584 83.8947 59.7874 83.8947C53.4016 83.8947 48.5751 82.3322 45.2783 79.1932Z" fill="white"/>
<path d="M84.544 83.1133C83.9945 82.4855 83.7272 81.6763 83.7866 80.8532V51.0677C83.7123 50.2585 83.9796 49.4494 84.544 48.8355C85.2865 48.2914 86.2369 48.0403 87.1725 48.124H92.4148C93.0237 48.0961 93.6474 48.1938 94.2118 48.417C94.7315 48.682 95.1622 49.0727 95.4592 49.547L105.469 63.6515V51.1095C105.394 50.2864 105.662 49.4633 106.241 48.8216C106.939 48.2775 107.845 48.0124 108.751 48.0821H115.329C116.265 47.9845 117.215 48.2356 117.958 48.7936C118.522 49.4354 118.79 50.2585 118.715 51.0816V80.8671C118.79 81.6763 118.522 82.4715 117.958 83.0993C117.215 83.6434 116.265 83.8945 115.329 83.8108H110.117C109.508 83.8387 108.884 83.741 108.32 83.5178C107.815 83.2528 107.384 82.8761 107.087 82.4017L97.078 68.2972V80.909C97.1522 81.7181 96.8849 82.5134 96.3206 83.1412C95.578 83.6852 94.6276 83.9364 93.692 83.8527H87.1131C86.1775 83.9364 85.2568 83.6713 84.544 83.1133Z" fill="white"/>
<path d="M139.492 64.2376C140.531 64.2934 141.556 63.9726 142.358 63.3448C143.1 62.6333 143.486 61.6567 143.412 60.6662C143.501 59.6477 143.115 58.6572 142.358 57.9317C141.556 57.3039 140.531 56.9831 139.492 57.0389H135.616V64.2376H139.492ZM124.478 83.1134C123.913 82.4856 123.646 81.6625 123.72 80.8533V51.0818C123.646 50.2587 123.928 49.4495 124.478 48.8217C125.22 48.2637 126.171 47.9986 127.121 48.0823H140.665C146.338 48.0823 150.466 49.1286 153.05 51.2213C155.634 53.314 156.926 56.4529 156.926 60.6243C156.926 64.8096 155.634 67.9347 153.05 70.0273C150.466 72.12 146.353 73.1663 140.724 73.1663H137.323V80.8394C137.398 81.6625 137.13 82.4717 136.566 83.0995C135.809 83.6575 134.843 83.9226 133.878 83.8249H127.121C126.156 83.9226 125.22 83.6715 124.478 83.1134Z" fill="white"/>
<path d="M162.57 83.1133C162.021 82.4855 161.739 81.6763 161.813 80.8532V51.0816C161.739 50.2725 162.006 49.4493 162.57 48.8216C163.298 48.2635 164.234 47.9984 165.169 48.0821H185.767C186.643 47.9845 187.534 48.2356 188.188 48.7936C188.678 49.4633 188.915 50.2725 188.841 51.0677V54.0113C188.915 54.8205 188.693 55.6297 188.188 56.2854C187.519 56.8434 186.643 57.1085 185.767 56.9969H175.238V61.517H182.752C183.629 61.4194 184.52 61.6844 185.188 62.2285C185.678 62.8982 185.901 63.7073 185.827 64.5165V67.3486C185.901 68.1577 185.678 68.9669 185.188 69.6365C184.52 70.1946 183.629 70.4457 182.752 70.348H175.238V74.8682H185.708C186.599 74.7705 187.475 75.0356 188.143 75.5797C188.633 76.2493 188.856 77.0585 188.782 77.8677V80.8113C188.856 81.6205 188.633 82.4296 188.143 83.0993C187.475 83.6434 186.584 83.9085 185.708 83.8108H165.169C164.234 83.9224 163.298 83.6713 162.57 83.1133Z" fill="white"/>
<path d="M133.67 16.2321C133.595 15.7857 133.506 15.2695 133.432 14.851C133.269 13.9162 135.719 10.7633 135.749 6.88491C135.674 4.68065 134.739 2.58799 133.105 0.997568C132.912 0.830155 132.883 0.551134 133.061 0.36977C133.15 0.272113 133.298 0.216309 133.447 0.216309H93.3203V0.300015C93.3649 0.341868 93.4094 0.383721 93.4391 0.439526C93.7213 0.955715 92.9936 6.85701 94.152 15.3253C94.9836 21.1987 97.434 32.6525 97.434 32.6525C97.731 33.9918 99.1269 34.8428 100.538 34.5638C100.597 34.5499 100.657 34.5359 100.701 34.522C102.053 34.1174 102.84 32.8199 102.543 31.5225L100.879 22.9007L104.696 21.8544L107.339 35.2614C107.607 36.6007 108.973 37.4935 110.413 37.2564C110.503 37.2424 110.592 37.2145 110.681 37.2006C112.017 36.796 112.819 35.4985 112.522 34.2011L109.745 20.4314L113.562 19.3851L117.304 38.4701C117.571 39.8094 118.938 40.7023 120.363 40.4512C120.438 40.4372 120.527 40.4233 120.601 40.3954C121.938 39.9908 122.74 38.6933 122.443 37.3959L118.626 18.0179L122.443 16.9576L125.932 34.6894C126.185 36.0287 127.551 36.9215 128.992 36.6844C129.081 36.6704 129.185 36.6425 129.274 36.6146C130.61 36.21 131.412 34.9126 131.115 33.6151L126.645 10.847V10.8052L128.828 10.4285H128.873L133.595 34.4522C133.981 36.3775 132.615 38.2329 130.566 38.5957C130.462 38.6375 130.373 38.6654 130.269 38.6794L128.606 38.9584C126.853 39.2514 125.101 38.3585 124.433 36.8099C124.433 36.7681 124.343 36.8099 124.358 36.8099L124.64 38.2329C125.027 40.1861 123.66 42.0555 121.581 42.4183L120.037 42.6833C117.958 43.0461 115.968 41.7626 115.581 39.8094L114.794 35.8334C114.765 37.5214 113.458 38.9445 111.705 39.2514L110.116 39.5304C109.285 39.6978 108.409 39.6001 107.651 39.2374L110.636 56.5507L139.937 52.5607L133.67 16.2321Z" fill="white"/>
<path d="M110.028 39.5303L111.617 39.2513C113.384 38.9444 114.676 37.5214 114.706 35.8333L115.493 39.8093C115.879 41.7625 117.869 43.046 119.948 42.6833L121.492 42.4182C123.571 42.0834 124.967 40.2279 124.611 38.2608C124.611 38.2468 124.611 38.2329 124.596 38.2189L124.314 36.7959C124.314 36.7541 124.359 36.7401 124.388 36.7959C125.057 38.3445 126.809 39.2513 128.561 38.9583L130.225 38.6793C130.329 38.6514 130.432 38.6235 130.522 38.5956C132.571 38.2329 133.922 36.3913 133.551 34.4521L128.858 10.4563C128.858 10.4563 128.858 10.4563 128.814 10.4563L126.631 10.833C126.631 10.833 126.631 10.833 126.631 10.8748L131.101 33.6011C131.398 34.8986 130.596 36.196 129.259 36.6006C127.863 36.9912 126.408 36.2518 125.992 34.9404C125.962 34.8567 125.948 34.7591 125.918 34.6753L122.443 16.9156L118.626 17.9759L122.443 37.326C122.74 38.6235 121.938 39.9209 120.601 40.3255C119.205 40.7022 117.75 39.9349 117.349 38.6235C117.334 38.5537 117.319 38.4979 117.304 38.4282L113.562 19.371L109.745 20.4034L112.448 34.1452C112.745 35.4427 111.943 36.7401 110.607 37.1447C109.211 37.5353 107.741 36.782 107.34 35.4706C107.31 35.3868 107.295 35.3031 107.28 35.2194L104.681 21.8264L100.865 22.8728L102.528 31.4945C102.84 32.792 102.053 34.0894 100.716 34.5079C99.3203 34.8707 97.8649 34.1034 97.4788 32.792C97.4639 32.7222 97.4342 32.6524 97.4342 32.5827C97.4342 32.5827 94.9245 21.1289 94.1522 15.2555C92.9939 6.82904 93.7364 0.94169 93.4394 0.41155C93.4097 0.369697 93.3651 0.313892 93.3206 0.272039C92.8602 -0.11859 91.5088 -0.0906884 91.1969 0.369697C90.8851 0.830081 90.7811 8.85194 91.7464 15.3252C92.6077 21.1707 95.4145 34.0894 95.4145 34.0894C95.8006 36.0146 97.7609 37.2981 99.8252 36.9354L100.152 36.8796L101.459 36.6564L101.785 36.6006C103.553 36.2937 104.83 34.8707 104.874 33.1826C104.874 33.1268 104.949 33.1128 104.964 33.1826L105.632 36.6424C105.855 37.7446 106.597 38.6933 107.666 39.1955C108.379 39.5582 109.211 39.6698 110.028 39.5303Z" fill="#C12A2A"/>
<path d="M137.814 4.26202C137.458 2.7553 136.626 1.40205 135.438 0.34177C135.349 0.272014 135.23 0.244112 135.126 0.244112H133.463C133.195 0.230161 132.973 0.425476 132.973 0.662644C132.973 0.802154 133.032 0.927714 133.136 1.02537C134.77 2.60184 135.705 4.70845 135.779 6.91272C135.779 10.7911 133.27 13.972 133.463 14.8788C133.537 15.2973 133.626 15.8135 133.7 16.2599L133.879 17.2644C133.879 17.5155 134.101 17.7108 134.369 17.7108C134.532 17.7108 134.695 17.6271 134.77 17.4876C135.141 16.8598 135.601 16.0228 136.047 15.0601C137.487 11.949 138.928 7.49866 137.814 4.26202Z" fill="#C12B2A"/>
<path d="M0 93.8974C0 92.5023 0.400969 91.4002 1.20291 90.619C2.00484 89.8237 3.02954 89.4331 4.3067 89.4331C5.13834 89.4331 5.88087 89.6145 6.54915 89.9911C7.21743 90.3678 7.72236 90.884 8.06392 91.5397C8.42034 92.2094 8.5837 92.9627 8.5837 93.7998C8.5837 94.6508 8.40549 95.4181 8.03422 96.0878C7.66295 96.7574 7.14318 97.2736 6.4749 97.6224C5.80662 97.9712 5.07894 98.1386 4.29185 98.1386C3.44536 98.1386 2.68797 97.9433 2.01969 97.5666C1.35141 97.1899 0.846489 96.6598 0.504923 96.0041C0.178208 95.3484 0 94.6369 0 93.8974ZM1.23261 93.9253C1.23261 94.9438 1.52962 95.739 2.1088 96.3249C2.68797 96.9109 3.41566 97.2039 4.29185 97.2039C5.18289 97.2039 5.92542 96.9109 6.5046 96.3249C7.08378 95.739 7.36594 94.9019 7.36594 93.8137C7.36594 93.1301 7.24714 92.5302 6.99467 92.0141C6.74221 91.4979 6.3858 91.1072 5.91057 90.8282C5.43535 90.5492 4.90073 90.4097 4.3067 90.4097C3.46021 90.4097 2.74738 90.6748 2.1385 91.2188C1.52962 91.749 1.23261 92.6558 1.23261 93.9253ZM10.2618 98.013V92.6977H9.28168V91.9024H10.2618V91.3165C10.2618 90.7166 10.3955 90.2423 10.6776 89.9353C10.9598 89.6145 11.3905 89.4471 11.9994 89.4471C12.4003 89.4471 12.7716 89.4889 13.128 89.5726L12.9498 90.4515C12.727 90.4236 12.534 90.3957 12.3558 90.3957C11.9697 90.3957 11.7172 90.4655 11.5835 90.605C11.4499 90.7445 11.3756 91.0514 11.3756 91.5118V91.9024H12.6379V92.6977H11.3756V98.013H10.2618ZM13.4547 90.7445V89.5726H14.5537V90.7445H13.4547ZM13.4547 98.013V91.9024H14.5537V98.013H13.4547ZM20.4939 95.7669L21.578 95.9064C21.4592 96.604 21.1622 97.148 20.6722 97.5387C20.1821 97.9293 19.5881 98.1246 18.8752 98.1246C17.9842 98.1246 17.2714 97.8456 16.7367 97.3015C16.2021 96.7574 15.9199 95.9762 15.9199 94.9577C15.9199 94.302 16.0387 93.73 16.2615 93.2278C16.4991 92.7395 16.8407 92.3628 17.3159 92.1117C17.7911 91.8606 18.3109 91.735 18.8604 91.735C19.5584 91.735 20.1375 91.9024 20.5979 92.2373C21.0434 92.5721 21.3404 93.0464 21.4592 93.6603L20.39 93.8137C20.286 93.4092 20.1078 93.0883 19.8405 92.893C19.5881 92.6837 19.2762 92.586 18.9049 92.586C18.3554 92.586 17.8951 92.7674 17.5535 93.1441C17.2119 93.5208 17.0337 94.1067 17.0337 94.9159C17.0337 95.739 17.1971 96.3249 17.5387 96.7016C17.8802 97.0783 18.3109 97.2596 18.8455 97.2596C19.2762 97.2596 19.6475 97.1341 19.9296 96.883C20.2415 96.6737 20.4197 96.2831 20.4939 95.7669ZM22.5136 90.7445V89.5726H23.6126V90.7445H22.5136ZM22.5136 98.013V91.9024H23.6126V98.013H22.5136ZM25.3056 98.013V91.9024H26.3006V92.7674C26.7758 92.0978 27.4738 91.7769 28.3648 91.7769C28.7658 91.7769 29.1222 91.8466 29.4489 91.9722C29.7756 92.0978 30.0281 92.2791 30.1914 92.4884C30.3548 92.6977 30.4736 92.9627 30.533 93.2557C30.5776 93.451 30.5924 93.7858 30.5924 94.2602V98.013H29.4935V94.302C29.4935 93.8835 29.4489 93.5626 29.3598 93.3534C29.2707 93.1441 29.1222 92.9767 28.8994 92.8511C28.6767 92.7256 28.4242 92.6698 28.1272 92.6698C27.6668 92.6698 27.251 92.8093 26.9094 93.0883C26.5679 93.3673 26.4045 93.8974 26.4045 94.6787V98.013H25.3056ZM36.5327 97.2457C36.1169 97.5805 35.7308 97.8037 35.3446 97.9433C34.9734 98.0828 34.5575 98.1525 34.1269 98.1525C33.414 98.1525 32.8646 97.9851 32.4785 97.6642C32.0923 97.3434 31.8993 96.9248 31.8993 96.4086C31.8993 96.1157 31.9735 95.8366 32.122 95.5855C32.2705 95.3344 32.4636 95.1391 32.6864 94.9996C32.924 94.8461 33.1913 94.7345 33.4735 94.6648C33.6962 94.6089 34.0229 94.5671 34.4536 94.5113C35.3446 94.4136 35.9981 94.2881 36.4287 94.1625C36.4287 94.023 36.4287 93.9254 36.4287 93.8974C36.4287 93.4789 36.3248 93.1859 36.1169 93.0046C35.8347 92.7674 35.4189 92.6558 34.8546 92.6558C34.3348 92.6558 33.9487 92.7395 33.6962 92.9069C33.4437 93.0743 33.2655 93.3813 33.1467 93.8137L32.0626 93.6742C32.1666 93.2417 32.3151 92.893 32.5527 92.6279C32.7755 92.3628 33.1022 92.1536 33.5329 92.0141C33.9635 91.8745 34.4536 91.8048 35.0179 91.8048C35.5674 91.8048 36.0278 91.8606 36.3842 91.9862C36.7257 92.1117 36.9931 92.2652 37.1564 92.4465C37.3198 92.6279 37.4386 92.8651 37.498 93.158C37.5277 93.3394 37.5574 93.6463 37.5574 94.1067V95.4879C37.5574 96.4505 37.5871 97.0504 37.6316 97.3155C37.6762 97.5666 37.7653 97.8177 37.899 98.0549H36.7406C36.6366 97.7898 36.5624 97.5387 36.5327 97.2457ZM36.4436 94.9438C36.0426 95.0972 35.4337 95.2228 34.6318 95.3344C34.1714 95.3902 33.8596 95.46 33.6665 95.5437C33.4734 95.6134 33.3398 95.739 33.2358 95.8785C33.1319 96.032 33.0873 96.1854 33.0873 96.3668C33.0873 96.6458 33.1913 96.869 33.4289 97.0504C33.6517 97.2318 33.9784 97.3294 34.409 97.3294C34.8397 97.3294 35.211 97.2457 35.5377 97.0643C35.8644 96.8969 36.1169 96.6598 36.2654 96.3528C36.3842 96.1157 36.4436 95.7808 36.4436 95.3205V94.9438ZM42.8591 98.013V89.5726H44.0768L48.7845 96.1994V89.5726H49.928V98.013H48.7103L44.0026 91.4002V98.013H42.8591ZM56.0465 97.2457C55.6307 97.5805 55.2446 97.8037 54.8584 97.9433C54.4872 98.0828 54.0714 98.1525 53.6407 98.1525C52.9278 98.1525 52.3784 97.9851 51.9923 97.6642C51.6061 97.3434 51.4131 96.9248 51.4131 96.4086C51.4131 96.1157 51.4873 95.8366 51.6358 95.5855C51.7844 95.3344 51.9774 95.1391 52.2002 94.9996C52.4378 94.8461 52.7051 94.7345 52.9873 94.6648C53.21 94.6089 53.5367 94.5671 53.9674 94.5113C54.8584 94.4136 55.5119 94.2881 55.9425 94.1625C55.9425 94.023 55.9425 93.9254 55.9425 93.8974C55.9425 93.4789 55.8386 93.1859 55.6307 93.0046C55.3485 92.7674 54.9327 92.6558 54.3684 92.6558C53.8486 92.6558 53.4625 92.7395 53.21 92.9069C52.9576 93.0743 52.7793 93.3813 52.6605 93.8137L51.5764 93.6742C51.6804 93.2417 51.8289 92.893 52.0665 92.6279C52.2893 92.3628 52.616 92.1536 53.0467 92.0141C53.4773 91.8745 53.9674 91.8048 54.5317 91.8048C55.0812 91.8048 55.5416 91.8606 55.8831 91.9862C56.2247 92.1117 56.492 92.2652 56.6554 92.4465C56.8187 92.6279 56.9375 92.8651 56.9969 93.158C57.0266 93.3394 57.0563 93.6463 57.0563 94.1067V95.4879C57.0563 96.4505 57.086 97.0504 57.1306 97.3155C57.1752 97.5666 57.2643 97.8177 57.3979 98.0549H56.2396C56.1504 97.7898 56.0762 97.5387 56.0465 97.2457ZM55.9574 94.9438C55.5564 95.0972 54.9475 95.2228 54.1456 95.3344C53.6852 95.3902 53.3734 95.46 53.1803 95.5437C52.9873 95.6134 52.8536 95.739 52.7496 95.8785C52.6457 96.032 52.6011 96.1854 52.6011 96.3668C52.6011 96.6458 52.7051 96.869 52.9279 97.0504C53.1506 97.2318 53.4773 97.3294 53.908 97.3294C54.3387 97.3294 54.7099 97.2457 55.0367 97.0643C55.3634 96.8969 55.6158 96.6598 55.7643 96.3528C55.8831 96.1157 55.9425 95.7808 55.9425 95.3205L55.9574 94.9438ZM63.0115 95.7669L64.0956 95.9064C63.9768 96.604 63.6797 97.148 63.1897 97.5387C62.6996 97.9293 62.1056 98.1246 61.3927 98.1246C60.5017 98.1246 59.7889 97.8456 59.2542 97.3015C58.7196 96.7574 58.4375 95.9762 58.4375 94.9577C58.4375 94.302 58.5563 93.73 58.779 93.2278C59.0166 92.7395 59.3582 92.3628 59.8334 92.1117C60.3086 91.8606 60.8284 91.735 61.3779 91.735C62.0759 91.735 62.6551 91.9024 63.1154 92.2373C63.5609 92.5721 63.858 93.0464 63.9768 93.6603L62.9075 93.8137C62.8036 93.4092 62.6254 93.0883 62.358 92.893C62.1056 92.6837 61.7789 92.586 61.4224 92.586C60.873 92.586 60.4126 92.7674 60.071 93.1441C59.7295 93.5208 59.5513 94.1067 59.5513 94.9159C59.5513 95.739 59.7146 96.3249 60.0562 96.7016C60.3977 97.0783 60.8284 97.2596 61.363 97.2596C61.7937 97.2596 62.165 97.1341 62.4471 96.883C62.759 96.6737 62.9372 96.2831 63.0115 95.7669ZM65.0312 90.7445V89.5726H66.1301V90.7445H65.0312ZM65.0312 98.013V91.9024H66.1301V98.013H65.0312ZM67.4073 94.9577C67.4073 93.8277 67.7488 92.9906 68.4171 92.4465C68.9814 92.0001 69.6646 91.7629 70.4665 91.7629C71.3576 91.7629 72.0852 92.042 72.6644 92.586C73.2287 93.1301 73.5109 93.8975 73.5109 94.8601C73.5109 95.6413 73.3921 96.2552 73.1396 96.7156C72.8872 97.162 72.5159 97.5108 72.0407 97.7619C71.5655 98.013 71.0308 98.1386 70.4665 98.1386C69.5606 98.1386 68.8181 97.8595 68.2538 97.3155C67.6894 96.7714 67.4073 95.9762 67.4073 94.9577ZM68.5359 94.9577C68.5359 95.739 68.7141 96.3249 69.0854 96.7156C69.4567 97.1062 69.9022 97.3015 70.4665 97.3015C71.016 97.3015 71.4764 97.1062 71.8328 96.7156C72.1892 96.3249 72.3823 95.725 72.3823 94.9298C72.3823 94.1765 72.204 93.6045 71.8328 93.2139C71.4615 92.8232 71.016 92.6279 70.4665 92.6279C69.917 92.6279 69.4567 92.8232 69.0854 93.1999C68.7141 93.5905 68.5359 94.1765 68.5359 94.9577ZM74.7881 98.013V91.9024H75.7831V92.7674C76.2583 92.0978 76.9563 91.7769 77.8473 91.7769C78.2483 91.7769 78.6047 91.8466 78.9314 91.9722C79.2581 92.0978 79.5106 92.2791 79.6739 92.4884C79.8373 92.6977 79.9561 92.9627 80.0155 93.2557C80.0601 93.451 80.0749 93.7858 80.0749 94.2602V98.013H78.976V94.302C78.976 93.8835 78.9314 93.5626 78.8423 93.3534C78.7532 93.1441 78.6047 92.9767 78.3819 92.8511C78.1592 92.7256 77.9067 92.6698 77.6097 92.6698C77.1493 92.6698 76.7335 92.8093 76.3919 93.0883C76.0504 93.3673 75.887 93.8974 75.887 94.6787V98.013H74.7881ZM86.0152 97.2457C85.5994 97.5805 85.2132 97.8037 84.8271 97.9433C84.4559 98.0828 84.04 98.1525 83.6094 98.1525C82.8965 98.1525 82.3471 97.9851 81.9609 97.6642C81.5748 97.3434 81.3818 96.9248 81.3818 96.4086C81.3818 96.1157 81.456 95.8366 81.6045 95.5855C81.753 95.3344 81.9461 95.1391 82.1689 94.9996C82.4065 94.8461 82.6738 94.7345 82.9559 94.6648C83.1787 94.6089 83.5054 94.5671 83.9361 94.5113C84.8271 94.4136 85.4806 94.2881 85.9112 94.1625C85.9112 94.023 85.9112 93.9254 85.9112 93.8974C85.9112 93.4789 85.8073 93.1859 85.5994 93.0046C85.3172 92.7674 84.9014 92.6558 84.3371 92.6558C83.8173 92.6558 83.4312 92.7395 83.1787 92.9069C82.9262 93.0743 82.748 93.3813 82.6292 93.8137L81.5451 93.6742C81.6491 93.2417 81.7976 92.893 82.0352 92.6279C82.258 92.3628 82.5847 92.1536 83.0154 92.0141C83.446 91.8745 83.9361 91.8048 84.5004 91.8048C85.0499 91.8048 85.5103 91.8606 85.8518 91.9862C86.1934 92.1117 86.4607 92.2652 86.6241 92.4465C86.7874 92.6279 86.9062 92.8651 86.9656 93.158C86.9953 93.3394 87.025 93.6463 87.025 94.1067V95.4879C87.025 96.4505 87.0547 97.0504 87.0993 97.3155C87.1438 97.5666 87.2329 97.8177 87.3666 98.0549H86.2082C86.1191 97.7898 86.0449 97.5387 86.0152 97.2457ZM85.9261 94.9438C85.5251 95.0972 84.9162 95.2228 84.1143 95.3344C83.6539 95.3902 83.3421 95.46 83.149 95.5437C82.9559 95.6134 82.8223 95.739 82.7183 95.8785C82.6144 96.032 82.5698 96.1854 82.5698 96.3668C82.5698 96.6458 82.6738 96.869 82.9114 97.0504C83.1342 97.2318 83.4609 97.3294 83.8915 97.3294C84.3222 97.3294 84.6935 97.2457 85.0202 97.0643C85.3469 96.8969 85.5994 96.6598 85.7479 96.3528C85.8667 96.1157 85.9261 95.7808 85.9261 95.3205V94.9438ZM88.718 98.013V89.5726H89.817V98.013H88.718ZM99.2174 98.013V97.2318C98.8016 97.8316 98.1927 98.1386 97.4057 98.1386C96.8859 98.1386 96.4107 97.9991 95.98 97.734C95.5493 97.4689 95.2078 97.0922 94.9702 96.6179C94.7325 96.1436 94.6137 95.5855 94.6137 94.9577C94.6137 94.3439 94.7177 93.7998 94.9404 93.2976C95.1632 92.8093 95.4899 92.4186 95.9206 92.1536C96.3513 91.8885 96.8413 91.7629 97.376 91.7629C97.7621 91.7629 98.1185 91.8466 98.4304 92.0001C98.7422 92.1536 98.9798 92.3628 99.1729 92.614V89.5866H100.272V98.027H99.2174V98.013ZM95.7275 94.9577C95.7275 95.739 95.9057 96.3249 96.2622 96.7156C96.6186 97.1062 97.0344 97.2876 97.5096 97.2876C97.9997 97.2876 98.4007 97.1062 98.7422 96.7295C99.0838 96.3668 99.2472 95.7948 99.2472 95.0414C99.2472 94.2044 99.0689 93.5905 98.7274 93.1999C98.3858 92.8093 97.9551 92.614 97.4502 92.614C96.9601 92.614 96.5443 92.7953 96.2176 93.172C95.8909 93.5626 95.7275 94.1486 95.7275 94.9577ZM106.42 96.032L107.564 96.1715C107.385 96.7993 107.059 97.2736 106.569 97.6224C106.078 97.9712 105.47 98.1386 104.712 98.1386C103.762 98.1386 103.004 97.8595 102.455 97.3155C101.905 96.7714 101.623 95.9901 101.623 94.9996C101.623 93.9672 101.905 93.172 102.47 92.614C103.034 92.042 103.762 91.7629 104.653 91.7629C105.514 91.7629 106.227 92.042 106.776 92.6C107.326 93.158 107.608 93.9393 107.608 94.9438C107.608 94.9996 107.608 95.0972 107.608 95.2228H102.767C102.811 95.8924 103.004 96.4086 103.376 96.7574C103.732 97.1062 104.192 97.2876 104.727 97.2876C105.128 97.2876 105.47 97.1899 105.767 96.9806C106.034 96.7853 106.257 96.4644 106.42 96.032ZM102.811 94.3718H106.435C106.39 93.8556 106.242 93.4789 106.019 93.2139C105.663 92.8093 105.217 92.614 104.653 92.614C104.148 92.614 103.717 92.7674 103.376 93.0883C103.034 93.4092 102.856 93.8277 102.811 94.3718ZM112.583 98.013V89.5726H115.969C116.563 89.5726 117.023 89.6005 117.335 89.6563C117.781 89.7261 118.152 89.8516 118.449 90.047C118.746 90.2423 118.984 90.5073 119.177 90.8561C119.355 91.2049 119.444 91.5816 119.444 92.0001C119.444 92.7116 119.206 93.3255 118.716 93.8137C118.226 94.316 117.35 94.5532 116.088 94.5532H113.786V97.9991H112.583V98.013ZM113.771 93.5766H116.088C116.86 93.5766 117.395 93.4371 117.721 93.172C118.048 92.9069 118.211 92.5302 118.211 92.042C118.211 91.6932 118.122 91.3863 117.929 91.1351C117.736 90.884 117.484 90.7166 117.172 90.6329C116.979 90.5771 116.608 90.5631 116.058 90.5631H113.756V93.5766H113.771ZM120.795 98.013V91.9024H121.79V92.8372C122.043 92.4047 122.281 92.1117 122.488 91.9722C122.711 91.8327 122.934 91.7629 123.201 91.7629C123.573 91.7629 123.959 91.8745 124.33 92.0838L123.944 93.0464C123.677 92.9069 123.409 92.8372 123.142 92.8372C122.904 92.8372 122.682 92.9069 122.503 93.0464C122.31 93.1859 122.177 93.3673 122.102 93.6184C121.984 93.9812 121.924 94.3857 121.924 94.8322V98.027H120.795V98.013ZM124.568 94.9577C124.568 93.8277 124.909 92.9906 125.577 92.4465C126.142 92.0001 126.825 91.7629 127.627 91.7629C128.518 91.7629 129.246 92.042 129.825 92.586C130.389 93.1301 130.671 93.8975 130.671 94.8601C130.671 95.6413 130.552 96.2552 130.3 96.7156C130.047 97.162 129.676 97.5108 129.201 97.7619C128.726 98.013 128.191 98.1386 127.627 98.1386C126.721 98.1386 125.978 97.8595 125.414 97.3155C124.85 96.7714 124.568 95.9762 124.568 94.9577ZM125.696 94.9577C125.696 95.739 125.874 96.3249 126.246 96.7156C126.617 97.1062 127.062 97.3015 127.627 97.3015C128.176 97.3015 128.637 97.1062 128.993 96.7156C129.364 96.3249 129.543 95.725 129.543 94.9298C129.543 94.1765 129.364 93.6045 128.993 93.2139C128.622 92.8232 128.176 92.6279 127.627 92.6279C127.077 92.6279 126.617 92.8232 126.246 93.1999C125.874 93.5905 125.696 94.1765 125.696 94.9577ZM136.211 95.7669L137.295 95.9064C137.176 96.604 136.879 97.148 136.389 97.5387C135.899 97.9293 135.305 98.1246 134.592 98.1246C133.701 98.1246 132.988 97.8456 132.453 97.3015C131.919 96.7574 131.636 95.9762 131.636 94.9577C131.636 94.302 131.755 93.73 131.993 93.2278C132.231 92.7395 132.572 92.3628 133.047 92.1117C133.523 91.8606 134.042 91.735 134.592 91.735C135.29 91.735 135.869 91.9024 136.329 92.2373C136.775 92.5721 137.072 93.0464 137.191 93.6603L136.121 93.8137C136.017 93.4092 135.839 93.0883 135.572 92.893C135.319 92.6837 134.993 92.586 134.636 92.586C134.087 92.586 133.626 92.7674 133.285 93.1441C132.943 93.5208 132.765 94.1067 132.765 94.9159C132.765 95.739 132.928 96.3249 133.27 96.7016C133.612 97.0783 134.042 97.2596 134.577 97.2596C135.008 97.2596 135.379 97.1341 135.661 96.883C135.943 96.6737 136.121 96.2831 136.211 95.7669ZM142.671 96.032L143.814 96.1715C143.636 96.7993 143.309 97.2736 142.819 97.6224C142.329 97.9712 141.72 98.1386 140.963 98.1386C140.012 98.1386 139.255 97.8595 138.705 97.3155C138.156 96.7714 137.874 95.9901 137.874 94.9996C137.874 93.9672 138.156 93.172 138.72 92.614C139.285 92.042 140.012 91.7629 140.903 91.7629C141.765 91.7629 142.477 92.042 143.027 92.6C143.576 93.158 143.859 93.9393 143.859 94.9438C143.859 94.9996 143.859 95.0972 143.859 95.2228H139.017C139.062 95.8924 139.255 96.4086 139.626 96.7574C139.983 97.1062 140.443 97.2876 140.978 97.2876C141.379 97.2876 141.72 97.1899 142.002 96.9806C142.27 96.7853 142.492 96.4644 142.671 96.032ZM139.047 94.3718H142.671C142.626 93.8556 142.478 93.4789 142.255 93.2139C141.913 92.8093 141.453 92.614 140.888 92.614C140.384 92.614 139.953 92.7674 139.611 93.0883C139.285 93.4092 139.092 93.8277 139.047 94.3718ZM144.765 96.1854L145.863 96.018C145.923 96.4226 146.101 96.7435 146.368 96.9667C146.651 97.1899 147.037 97.3015 147.542 97.3015C148.047 97.3015 148.433 97.2038 148.67 97.0085C148.908 96.8132 149.042 96.59 149.042 96.3249C149.042 96.0878 148.938 95.9064 148.715 95.7669C148.566 95.6692 148.18 95.5576 147.586 95.4181C146.784 95.2228 146.22 95.0693 145.908 94.9298C145.596 94.7903 145.359 94.595 145.195 94.3439C145.032 94.0928 144.958 93.8277 144.958 93.5208C144.958 93.2417 145.032 92.9906 145.151 92.7674C145.284 92.5303 145.462 92.3489 145.685 92.1954C145.863 92.0838 146.086 91.9722 146.383 91.8885C146.68 91.8048 146.992 91.7629 147.334 91.7629C147.839 91.7629 148.284 91.8327 148.67 91.9722C149.056 92.1117 149.339 92.2931 149.532 92.5302C149.71 92.7674 149.843 93.0883 149.903 93.4789L148.819 93.6184C148.774 93.2975 148.626 93.0464 148.388 92.879C148.15 92.6977 147.824 92.614 147.393 92.614C146.888 92.614 146.532 92.6977 146.309 92.8511C146.086 93.0046 145.982 93.1999 145.982 93.4092C145.982 93.5487 146.027 93.6603 146.116 93.7719C146.205 93.8835 146.339 93.9672 146.532 94.0509C146.636 94.0928 146.962 94.1765 147.497 94.316C148.269 94.5113 148.819 94.6648 149.131 94.7903C149.442 94.9159 149.68 95.0972 149.858 95.3344C150.036 95.5716 150.126 95.8645 150.126 96.2133C150.126 96.5621 150.022 96.883 149.799 97.1899C149.576 97.4968 149.279 97.734 148.863 97.9014C148.462 98.0688 148.002 98.1525 147.497 98.1525C146.651 98.1525 146.012 97.9851 145.566 97.6642C145.165 97.3155 144.883 96.8272 144.765 96.1854ZM151.061 94.9577C151.061 93.8277 151.403 92.9906 152.071 92.4465C152.635 92.0001 153.318 91.7629 154.12 91.7629C155.011 91.7629 155.739 92.042 156.318 92.586C156.883 93.1301 157.165 93.8975 157.165 94.8601C157.165 95.6413 157.046 96.2552 156.794 96.7156C156.541 97.162 156.17 97.5108 155.695 97.7619C155.219 98.013 154.685 98.1386 154.12 98.1386C153.215 98.1386 152.472 97.8595 151.908 97.3155C151.329 96.7714 151.061 95.9762 151.061 94.9577ZM152.19 94.9577C152.19 95.739 152.368 96.3249 152.739 96.7156C153.111 97.1062 153.556 97.3015 154.12 97.3015C154.67 97.3015 155.13 97.1062 155.487 96.7156C155.858 96.3249 156.036 95.725 156.036 94.9298C156.036 94.1765 155.858 93.6045 155.487 93.2139C155.115 92.8232 154.67 92.6279 154.12 92.6279C153.571 92.6279 153.111 92.8232 152.739 93.1999C152.368 93.5905 152.19 94.1765 152.19 94.9577ZM158.011 96.1854L159.095 96.018C159.155 96.4226 159.333 96.7435 159.6 96.9667C159.883 97.1899 160.269 97.3015 160.774 97.3015C161.278 97.3015 161.665 97.2038 161.902 97.0085C162.14 96.8132 162.273 96.59 162.273 96.3249C162.273 96.0878 162.17 95.9064 161.947 95.7669C161.798 95.6692 161.412 95.5576 160.818 95.4181C160.016 95.2228 159.452 95.0693 159.14 94.9298C158.828 94.7903 158.59 94.595 158.427 94.3439C158.264 94.0928 158.19 93.8277 158.19 93.5208C158.19 93.2417 158.264 92.9906 158.383 92.7674C158.516 92.5303 158.694 92.3489 158.932 92.1954C159.11 92.0838 159.333 91.9722 159.63 91.8885C159.927 91.8048 160.239 91.7629 160.58 91.7629C161.085 91.7629 161.531 91.8327 161.917 91.9722C162.303 92.1117 162.585 92.2931 162.778 92.5302C162.957 92.7674 163.09 93.0883 163.15 93.4789L162.066 93.6184C162.021 93.2975 161.872 93.0464 161.635 92.879C161.397 92.6977 161.071 92.614 160.64 92.614C160.135 92.614 159.779 92.6977 159.556 92.8511C159.333 93.0046 159.229 93.1999 159.229 93.4092C159.229 93.5487 159.274 93.6603 159.363 93.7719C159.452 93.8835 159.585 93.9672 159.779 94.0509C159.883 94.0928 160.209 94.1765 160.744 94.316C161.516 94.5113 162.066 94.6648 162.377 94.7903C162.689 94.9159 162.927 95.0972 163.105 95.3344C163.283 95.5716 163.372 95.8645 163.372 96.2133C163.372 96.5621 163.268 96.883 163.046 97.1899C162.823 97.4968 162.526 97.734 162.11 97.9014C161.709 98.0688 161.249 98.1525 160.744 98.1525C159.897 98.1525 159.259 97.9851 158.813 97.6642C158.412 97.3155 158.13 96.8272 158.011 96.1854ZM168.362 98.013V89.5726H174.852V90.5631H169.565V93.158H174.525V94.1486H169.565V97.0225H175.075V98.013H168.362ZM176.53 98.013V89.5726H177.629V98.013H176.53ZM183.777 96.032L184.921 96.1715C184.743 96.7993 184.416 97.2736 183.926 97.6224C183.436 97.9712 182.827 98.1386 182.069 98.1386C181.119 98.1386 180.362 97.8595 179.812 97.3155C179.263 96.7714 178.98 95.9901 178.98 94.9996C178.98 93.9672 179.263 93.172 179.827 92.614C180.391 92.042 181.119 91.7629 182.01 91.7629C182.871 91.7629 183.584 92.042 184.134 92.6C184.683 93.158 184.965 93.9393 184.965 94.9438C184.965 94.9996 184.965 95.0972 184.965 95.2228H180.124C180.169 95.8924 180.362 96.4086 180.733 96.7574C181.089 97.1062 181.55 97.2876 182.084 97.2876C182.485 97.2876 182.827 97.1899 183.109 96.9806C183.391 96.7853 183.614 96.4644 183.777 96.032ZM180.169 94.3718H183.792C183.748 93.8556 183.599 93.4789 183.376 93.2139C183.02 92.8093 182.574 92.614 182.01 92.614C181.505 92.614 181.074 92.7674 180.733 93.0883C180.406 93.4092 180.213 93.8277 180.169 94.3718ZM190.564 95.7669L191.648 95.9064C191.529 96.604 191.232 97.148 190.742 97.5387C190.252 97.9293 189.658 98.1246 188.945 98.1246C188.054 98.1246 187.341 97.8456 186.807 97.3015C186.272 96.7574 185.99 95.9762 185.99 94.9577C185.99 94.302 186.109 93.73 186.346 93.2278C186.584 92.7395 186.926 92.3628 187.401 92.1117C187.876 91.8606 188.396 91.735 188.945 91.735C189.643 91.735 190.222 91.9024 190.683 92.2373C191.128 92.5721 191.425 93.0464 191.544 93.6603L190.475 93.8137C190.371 93.4092 190.193 93.0883 189.925 92.893C189.673 92.6837 189.361 92.586 188.99 92.586C188.44 92.586 187.98 92.7674 187.638 93.1441C187.297 93.5208 187.119 94.1067 187.119 94.9159C187.119 95.739 187.282 96.3249 187.624 96.7016C187.965 97.0783 188.396 97.2596 188.93 97.2596C189.361 97.2596 189.732 97.1341 190.015 96.883C190.312 96.6737 190.49 96.2831 190.564 95.7669ZM194.99 97.0783L195.138 97.9991C194.826 98.0549 194.544 98.0967 194.306 98.0967C193.905 98.0967 193.594 98.0409 193.371 97.9154C193.148 97.7898 193 97.6363 192.91 97.441C192.821 97.2457 192.777 96.8411 192.777 96.2133V92.6977H191.96V91.9024H192.777V90.3957L193.876 89.7679V91.9024H194.975V92.6977H193.876V96.2831C193.876 96.5761 193.891 96.7714 193.935 96.8551C193.98 96.9388 194.039 97.0085 194.128 97.0504C194.217 97.0922 194.336 97.1201 194.499 97.1201C194.618 97.1201 194.782 97.1062 194.99 97.0783ZM195.658 94.9577C195.658 93.8277 195.999 92.9906 196.668 92.4465C197.232 92.0001 197.915 91.7629 198.717 91.7629C199.608 91.7629 200.336 92.042 200.915 92.586C201.479 93.1301 201.761 93.8975 201.761 94.8601C201.761 95.6413 201.643 96.2552 201.39 96.7156C201.138 97.162 200.781 97.5108 200.291 97.7619C199.816 98.013 199.281 98.1386 198.717 98.1386C197.811 98.1386 197.069 97.8595 196.504 97.3155C195.94 96.7714 195.658 95.9762 195.658 94.9577ZM196.786 94.9577C196.786 95.739 196.965 96.3249 197.336 96.7156C197.707 97.1062 198.153 97.3015 198.717 97.3015C199.267 97.3015 199.727 97.1062 200.083 96.7156C200.455 96.3249 200.633 95.725 200.633 94.9298C200.633 94.1765 200.455 93.6045 200.083 93.2139C199.712 92.8232 199.267 92.6279 198.717 92.6279C198.168 92.6279 197.707 92.8232 197.336 93.1999C196.965 93.5905 196.786 94.1765 196.786 94.9577ZM203.039 98.013V91.9024H204.034V92.8372C204.286 92.4047 204.524 92.1117 204.732 91.9722C204.954 91.8327 205.177 91.7629 205.444 91.7629C205.816 91.7629 206.202 91.8745 206.573 92.0838L206.187 93.0464C205.92 92.9069 205.652 92.8372 205.385 92.8372C205.147 92.8372 204.925 92.9069 204.746 93.0464C204.553 93.1859 204.42 93.3673 204.345 93.6184C204.227 93.9812 204.167 94.3857 204.167 94.8322V98.027H203.039V98.013ZM211.474 97.2457C211.058 97.5805 210.672 97.8037 210.286 97.9433C209.914 98.0828 209.499 98.1525 209.068 98.1525C208.355 98.1525 207.806 97.9851 207.42 97.6642C207.033 97.3434 206.84 96.9248 206.84 96.4086C206.84 96.1157 206.915 95.8366 207.063 95.5855C207.212 95.3344 207.405 95.1391 207.627 94.9996C207.865 94.8461 208.132 94.7345 208.415 94.6648C208.637 94.6089 208.964 94.5671 209.395 94.5113C210.286 94.4136 210.939 94.2881 211.37 94.1625C211.37 94.023 211.37 93.9254 211.37 93.8974C211.37 93.4789 211.266 93.1859 211.058 93.0046C210.776 92.7674 210.36 92.6558 209.796 92.6558C209.276 92.6558 208.89 92.7395 208.637 92.9069C208.385 93.0743 208.207 93.3813 208.088 93.8137L207.004 93.6742C207.108 93.2417 207.256 92.893 207.494 92.6279C207.717 92.3628 208.043 92.1536 208.474 92.0141C208.905 91.8745 209.395 91.8048 209.959 91.8048C210.509 91.8048 210.969 91.8606 211.31 91.9862C211.652 92.1117 211.919 92.2652 212.083 92.4465C212.246 92.6279 212.365 92.8651 212.424 93.158C212.454 93.3394 212.484 93.6463 212.484 94.1067V95.4879C212.484 96.4505 212.513 97.0504 212.558 97.3155C212.602 97.5666 212.692 97.8177 212.825 98.0549H211.667C211.578 97.7898 211.503 97.5387 211.474 97.2457ZM211.385 94.9438C210.984 95.0972 210.375 95.2228 209.573 95.3344C209.113 95.3902 208.801 95.46 208.608 95.5437C208.415 95.6134 208.281 95.739 208.177 95.8785C208.073 96.032 208.028 96.1854 208.028 96.3668C208.028 96.6458 208.132 96.869 208.355 97.0504C208.578 97.2318 208.905 97.3294 209.335 97.3294C209.766 97.3294 210.137 97.2457 210.464 97.0643C210.791 96.8969 211.043 96.6598 211.192 96.3528C211.31 96.1157 211.37 95.7808 211.37 95.3205L211.385 94.9438ZM214.177 98.013V89.5726H215.276V98.013H214.177ZM221.424 96.032L222.567 96.1715C222.389 96.7993 222.062 97.2736 221.572 97.6224C221.082 97.9712 220.473 98.1386 219.716 98.1386C218.765 98.1386 218.008 97.8595 217.459 97.3155C216.909 96.7714 216.627 95.9901 216.627 94.9996C216.627 93.9672 216.909 93.172 217.473 92.614C218.038 92.042 218.765 91.7629 219.657 91.7629C220.518 91.7629 221.231 92.042 221.78 92.6C222.33 93.158 222.612 93.9393 222.612 94.9438C222.612 94.9996 222.612 95.0972 222.612 95.2228H217.77C217.815 95.8924 218.008 96.4086 218.379 96.7574C218.736 97.1062 219.196 97.2876 219.731 97.2876C220.132 97.2876 220.473 97.1899 220.77 96.9806C221.023 96.7853 221.26 96.4644 221.424 96.032ZM217.815 94.3718H221.439C221.394 93.8556 221.246 93.4789 221.023 93.2139C220.666 92.8093 220.221 92.614 219.657 92.614C219.152 92.614 218.721 92.7674 218.379 93.0883C218.038 93.4092 217.845 93.8277 217.815 94.3718Z" fill="white"/>
<path d="M223.518 96.1857L224.602 96.0182C224.661 96.4228 224.839 96.7437 225.107 96.9669C225.389 97.1901 225.775 97.3018 226.28 97.3018C226.785 97.3018 227.171 97.2041 227.408 97.0088C227.646 96.8135 227.78 96.5902 227.78 96.3252C227.78 96.088 227.676 95.9066 227.453 95.7671C227.305 95.6695 226.918 95.5579 226.324 95.4184C225.522 95.223 224.958 95.0696 224.646 94.9301C224.334 94.7906 224.097 94.5952 223.933 94.3441C223.77 94.093 223.696 93.8279 223.696 93.521C223.696 93.242 223.77 92.9909 223.889 92.7677C224.023 92.5305 224.201 92.3491 224.423 92.1957C224.602 92.0841 224.824 91.9724 225.121 91.8887C225.418 91.805 225.73 91.7632 226.072 91.7632C226.577 91.7632 227.022 91.8329 227.408 91.9725C227.795 92.112 228.077 92.2933 228.27 92.5305C228.448 92.7677 228.582 93.0885 228.641 93.4792L227.557 93.6187C227.512 93.2978 227.364 93.0467 227.126 92.8793C226.889 92.6979 226.562 92.6142 226.131 92.6142C225.626 92.6142 225.27 92.6979 225.047 92.8514C224.839 93.0048 224.721 93.2001 224.721 93.4094C224.721 93.5489 224.765 93.6605 224.854 93.7721C224.943 93.8837 225.077 93.9674 225.27 94.0512C225.374 94.093 225.701 94.1767 226.235 94.3162C227.007 94.5115 227.557 94.665 227.869 94.7906C228.181 94.9161 228.418 95.0975 228.597 95.3347C228.775 95.5718 228.864 95.8648 228.864 96.2136C228.864 96.5623 228.76 96.8832 228.537 97.1901C228.314 97.4971 228.017 97.7342 227.602 97.9017C227.201 98.0691 226.74 98.1528 226.235 98.1528C225.389 98.1528 224.75 97.9853 224.305 97.6645C223.919 97.3157 223.636 96.8274 223.518 96.1857Z" fill="white"/>
<path fill-rule="evenodd" clip-rule="evenodd" d="M0.0888672 104.71H228.641V102.575H0.0888672V104.71Z" fill="#C23334"/>
</svg>
